<svg width="1600" height="980" viewBox="0 0 1600 980" fill="none" xmlns="http://www.w3.org/2000/svg" role="img" aria-labelledby="title desc">
  <title id="title">Task Bundle terminal showcase</title>
  <desc id="desc">A three-panel terminal showcase for Task Bundle showing inspect, compare, and report output.</desc>
  <defs>
    <linearGradient id="bg" x1="122" y1="58" x2="1490" y2="926" gradientUnits="userSpaceOnUse">
      <stop stop-color="#0F202C"/>
      <stop offset="0.52" stop-color="#16384C"/>
      <stop offset="1" stop-color="#215067"/>
    </linearGradient>
    <linearGradient id="glow" x1="248" y1="138" x2="1379" y2="873" gradientUnits="userSpaceOnUse">
      <stop stop-color="#7BE0D4" stop-opacity="0.32"/>
      <stop offset="1" stop-color="#FFD18B" stop-opacity="0.12"/>
    </linearGradient>
    <linearGradient id="chrome" x1="190" y1="162" x2="493" y2="261" gradientUnits="userSpaceOnUse">
      <stop stop-color="#214055"/>
      <stop offset="1" stop-color="#1A3345"/>
    </linearGradient>
    <filter id="shadow" x="128" y="116" width="1344" height="738" filterUnits="userSpaceOnUse" color-interpolation-filters="sRGB">
      <feFlood flood-opacity="0" result="BackgroundImageFix"/>
      <feColorMatrix in="SourceAlpha" type="matrix" values="0 0 0 0 0 0 0 0 0 0 0 0 0 0 0 0 0 0 127 0" result="hardAlpha"/>
      <feOffset dy="18"/>
      <feGaussianBlur stdDeviation="18"/>
      <feColorMatrix type="matrix" values="0 0 0 0 0.0235294 0 0 0 0 0.0901961 0 0 0 0 0.137255 0 0 0 0.26 0"/>
      <feBlend mode="normal" in2="BackgroundImageFix" result="effect1_dropShadow_0_1"/>
      <feBlend mode="normal" in="SourceGraphic" in2="effect1_dropShadow_0_1" result="shape"/>
    </filter>
  </defs>

  <rect width="1600" height="980" rx="34" fill="url(#bg)"/>
  <path d="M0 742C152 662 260 610 420 627C564 642 658 745 830 737C996 728 1088 610 1240 579C1365 553 1470 590 1600 663V980H0V742Z" fill="#0D1C25" fill-opacity="0.42"/>
  <circle cx="1316" cy="178" r="172" fill="url(#glow)"/>
  <path d="M150 108H812" stroke="#79DDD2" stroke-opacity="0.34" stroke-width="3" stroke-linecap="round"/>
  <path d="M150 136H560" stroke="#79DDD2" stroke-opacity="0.18" stroke-width="3" stroke-linecap="round"/>

  <text x="150" y="222" fill="#FFF5E8" font-size="64" font-weight="800" font-family="'Avenir Next','Helvetica Neue',Arial,sans-serif">
    Real CLI Output
  </text>
  <text x="150" y="286" fill="#CDE8EA" font-size="28" font-weight="500" font-family="'Avenir Next','Helvetica Neue',Arial,sans-serif">
    Inspect the bundle. Compare the run. Report the results.
  </text>
  <text x="150" y="336" fill="#FFD39B" font-size="24" font-weight="700" font-family="'Avenir Next','Helvetica Neue',Arial,sans-serif">
    The examples in this repo already produce readable output, not just schema files.
  </text>

  <g filter="url(#shadow)">
    <g transform="translate(150 404)">
      <rect x="0" y="0" width="392" height="392" rx="24" fill="#0B1620"/>
      <rect x="0" y="0" width="392" height="66" rx="24" fill="url(#chrome)"/>
      <path d="M0 42C0 28.7452 10.7452 18 24 18H368C381.255 18 392 28.7452 392 42V66H0V42Z" fill="#1B3447"/>
      <circle cx="30" cy="33" r="7" fill="#FF8E72"/>
      <circle cx="54" cy="33" r="7" fill="#FFD18B"/>
      <circle cx="78" cy="33" r="7" fill="#7BE0D4"/>
      <text x="118" y="38" fill="#E7F4F7" font-size="18" font-weight="700" font-family="'Avenir Next','Helvetica Neue',Arial,sans-serif">inspect</text>

      <g font-family="'SF Mono',Menlo,Monaco,monospace" font-size="16" font-weight="600">
        <text x="24" y="104" fill="#7BE0D4">$ npm run dev -- inspect ./examples/hello-world-bundle</text>
        <text x="24" y="144" fill="#FFF5E8">Task Bundle</text>
        <text x="24" y="170" fill="#6B8A99">-----------</text>
        <text x="24" y="204" fill="#CDE8EA">Title: <tspan fill="#FFF5E8">Fix greeting punctuation</tspan></text>
        <text x="24" y="230" fill="#CDE8EA">Tool: <tspan fill="#7BE0D4">codex</tspan></text>
        <text x="24" y="256" fill="#CDE8EA">Model: <tspan fill="#FFD39B">gpt-5</tspan></text>
        <text x="24" y="282" fill="#CDE8EA">Status: <tspan fill="#A9F1E5">success</tspan></text>
        <text x="24" y="308" fill="#CDE8EA">Score: <tspan fill="#FFF5E8">0.93</tspan></text>
        <text x="24" y="334" fill="#CDE8EA">Workspace files: <tspan fill="#FFF5E8">1</tspan></text>
        <text x="24" y="360" fill="#CDE8EA">Events: <tspan fill="#FFF5E8">3</tspan></text>
      </g>
    </g>

    <g transform="translate(604 404)">
      <rect x="0" y="0" width="392" height="392" rx="24" fill="#0B1620"/>
      <rect x="0" y="0" width="392" height="66" rx="24" fill="url(#chrome)"/>
      <path d="M0 42C0 28.7452 10.7452 18 24 18H368C381.255 18 392 28.7452 392 42V66H0V42Z" fill="#1B3447"/>
      <circle cx="30" cy="33" r="7" fill="#FF8E72"/>
      <circle cx="54" cy="33" r="7" fill="#FFD18B"/>
      <circle cx="78" cy="33" r="7" fill="#7BE0D4"/>
      <text x="116" y="38" fill="#E7F4F7" font-size="18" font-weight="700" font-family="'Avenir Next','Helvetica Neue',Arial,sans-serif">compare</text>

      <g font-family="'SF Mono',Menlo,Monaco,monospace" font-size="14.5" font-weight="600">
        <text x="24" y="104" fill="#7BE0D4">$ npm run dev -- compare ./examples/...</text>
        <text x="24" y="144" fill="#FFF5E8">Task Bundle Comparison</text>
        <text x="24" y="170" fill="#6B8A99">----------------------</text>
        <text x="24" y="204" fill="#CDE8EA">Left tool: <tspan fill="#7BE0D4">codex</tspan></text>
        <text x="24" y="230" fill="#CDE8EA">Right tool: <tspan fill="#FFD39B">claude-code</tspan></text>
        <text x="24" y="256" fill="#CDE8EA">Left score: <tspan fill="#FFF5E8">0.93</tspan></text>
        <text x="24" y="282" fill="#CDE8EA">Right score: <tspan fill="#FFF5E8">0.89</tspan></text>
        <text x="24" y="308" fill="#CDE8EA">Score delta: <tspan fill="#A9F1E5">0.04</tspan></text>
        <text x="24" y="334" fill="#CDE8EA">Workspace file delta: <tspan fill="#FFF5E8">0</tspan></text>
        <text x="24" y="360" fill="#CDE8EA">Event count delta: <tspan fill="#FFF5E8">-1</tspan></text>
      </g>
    </g>

    <g transform="translate(1058 404)">
      <rect x="0" y="0" width="392" height="392" rx="24" fill="#0B1620"/>
      <rect x="0" y="0" width="392" height="66" rx="24" fill="url(#chrome)"/>
      <path d="M0 42C0 28.7452 10.7452 18 24 18H368C381.255 18 392 28.7452 392 42V66H0V42Z" fill="#1B3447"/>
      <circle cx="30" cy="33" r="7" fill="#FF8E72"/>
      <circle cx="54" cy="33" r="7" fill="#FFD18B"/>
      <circle cx="78" cy="33" r="7" fill="#7BE0D4"/>
      <text x="126" y="38" fill="#E7F4F7" font-size="18" font-weight="700" font-family="'Avenir Next','Helvetica Neue',Arial,sans-serif">report</text>

      <g font-family="'SF Mono',Menlo,Monaco,monospace" font-size="14.5" font-weight="600">
        <text x="24" y="104" fill="#7BE0D4">$ npm run dev -- report ./examples ...</text>
        <text x="24" y="144" fill="#FFF5E8">Task Bundle Benchmark Report</text>
        <text x="24" y="170" fill="#6B8A99">----------------------------</text>
        <text x="24" y="204" fill="#CDE8EA">Bundles: <tspan fill="#FFF5E8">2</tspan></text>
        <text x="24" y="230" fill="#CDE8EA">Scored bundles: <tspan fill="#FFF5E8">2</tspan></text>
        <text x="24" y="256" fill="#CDE8EA">Average score: <tspan fill="#A9F1E5">0.91</tspan></text>
        <text x="24" y="296" fill="#FFD39B">Ranking</text>
        <text x="24" y="322" fill="#CDE8EA">1. codex / gpt-5 <tspan fill="#FFF5E8">0.93</tspan></text>
        <text x="24" y="348" fill="#CDE8EA">2. claude-code / sonnet-4 <tspan fill="#FFF5E8">0.89</tspan></text>
      </g>
    </g>
  </g>
</svg>
